<svg width="70" height="70" viewBox="0 0 24 24" fill="none" xmlns="http://www.w3.org/2000/svg">
  <g stroke="url(#privacy-gradient)" stroke-width="1.5" stroke-linecap="round" stroke-linejoin="round">
    <path d="M20 13C20 18 16.5 20.5 12.34 21.95C12.12 22.03 11.88 22.03 11.67 21.94C7.5 20.5 4 18 4 13V6C4 5.45 4.45 5 5 5C7 5 9.5 3.8 11.24 2.28C11.68 1.9 12.33 1.9 12.76 2.28C14.51 3.81 17 5 19 5C19.55 5 20 5.45 20 6V13Z"/>
    <path d="M12 2V22"/>
  </g>
  <defs>
    <linearGradient id="privacy-gradient" x1="12" y1="2" x2="12" y2="22" gradientUnits="userSpaceOnUse">
      <stop stop-color="#1FD8E9"/>
      <stop offset="1" stop-color="#1DB86C"/>
    </linearGradient>
  </defs>
</svg>
